<svg
  xmlns="http://www.w3.org/2000/svg"
  viewBox="0 0 200 40"
  class="UserLogo variant--Flat TestimonialCard__logo"
  >
    <title>Chairity Water logo</title>
    <g fill="none" fill-rule="evenodd">
      <path
        fill="var(--userLogoColor, #000)"
        d="M33.43 22.88h.5c-.55 1.8-1.89 2.69-4.02 2.69a4.72 4.72 0 0 1-4.85-5 5.01 5.01 0 0 1 5.08-5.2c.8-.02 1.58.16 2.28.52.7.37 1.05.8 1.05 1.31 0 .2-.07.4-.2.55a.66.66 0 0 1-.55.25c-.5 0-.84-.3-.95-.89-.05-.34-.2-.67-.43-.93-.36-.22-.77-.3-1.19-.27-.92-.06-1.8.35-2.36 1.07-.52.72-.79 1.8-.79 3.24a6.15 6.15 0 0 0 .85 3.47 2.9 2.9 0 0 0 2.6 1.26c1.55 0 2.54-.69 2.98-2.07zm8.05-5.58a4.9 4.9 0 0 1 1.58-1.46 3.9 3.9 0 0 1 1.91-.5c.7-.01 1.37.16 1.96.5.47.27.83.7 1 1.2.2.75.27 1.53.24 2.3v2.6c-.02.68 0 1.35.06 2.02a.7.7 0 0 0 .38.53c.38.14.78.2 1.17.17v.53h-4.95v-.53h.22c.39.04.78-.04 1.1-.25a.9.9 0 0 0 .3-.57c.03-.21.04-.85.04-1.9v-2.83a8.12 8.12 0 0 0-.14-1.74 1.6 1.6 0 0 0-.66-.94 2.18 2.18 0 0 0-1.3-.37c-.6 0-1.17.18-1.65.53-.53.42-.97.96-1.26 1.57v3.79c0 1.06 0 1.71.05 1.98.04.22.16.4.35.53.35.16.73.22 1.11.2v.53h-4.87v-.53h.24c.39.05.78-.04 1.1-.24a.9.9 0 0 0 .3-.57c.03-.21.04-.85.04-1.9v-9.42c0-.96-.09-1.56-.27-1.81-.18-.25-.63-.38-1.32-.38V9.8a8.16 8.16 0 0 0 3.02-.5h.25v7.99zm22.75 6.17h.43c-.08 1.32-.73 1.98-1.97 1.98-.46.02-.9-.13-1.26-.42a2.06 2.06 0 0 1-.6-1.23c-.66.48-1.38.9-2.13 1.23a4.5 4.5 0 0 1-1.74.42c-.6.01-1.2-.18-1.67-.56-.47-.35-.73-.9-.7-1.48.02-.84.45-1.62 1.17-2.08 1-.71 2.1-1.3 3.26-1.73l1.82-.73v-.46c.01-.46-.03-.93-.14-1.39a1.46 1.46 0 0 0-.66-.78 2.62 2.62 0 0 0-1.42-.35c-1.18 0-1.83.39-1.97 1.15-.13.77-.45 1.18-1 1.18-.56 0-.71-.22-.71-.67 0-.44.31-.9.94-1.4.64-.5 1.62-.77 2.95-.77.8-.04 1.6.12 2.31.46.47.23.85.6 1.08 1.06.21.57.3 1.18.27 1.8v3.78c-.03.57.02 1.15.14 1.72.1.25.34.4.61.37.53.01.86-.36.99-1.1zm-3.4-4.04l-1.28.5c-2.01.8-3.02 1.82-3.02 3.04-.02.42.12.84.4 1.17.24.29.61.45 1 .44a3 3 0 0 0 1.28-.35c.58-.3 1.13-.66 1.63-1.08v-3.72zm11.4-1.66c.27-.68.72-1.29 1.3-1.74a2.9 2.9 0 0 1 1.76-.7c.46 0 .9.17 1.21.5.27.26.43.6.45.97a.8.8 0 0 1-.79.82c-.39 0-.69-.28-.89-.85-.14-.39-.35-.58-.63-.58-.47.07-.9.31-1.2.68-.43.37-.74.86-.9 1.4a7.98 7.98 0 0 0-.2 1.98v1.69c0 .99 0 1.64.03 1.9a.8.8 0 0 0 .34.6c.32.17.69.24 1.05.2h.33v.54H69v-.52h.25c.35.02.7-.04 1-.2.2-.11.33-.3.37-.53.03-.23.05-.89.05-1.98v-2.67c0-1 0-1.65-.04-1.9a.83.83 0 0 0-.33-.6 1.86 1.86 0 0 0-1.05-.22H69v-.53c.98-.14 1.94-.36 2.87-.68.26.79.38 1.6.37 2.42zm12.03-2.41v6.59c0 .99.01 1.62.04 1.9.02.24.15.46.34.6.32.17.69.24 1.05.2h.24v.54h-5.2v-.53h.4c.38.04.76-.04 1.09-.24a.93.93 0 0 0 .29-.57c.03-.21.04-.85.04-1.9v-2.86a7.57 7.57 0 0 0-.16-2.04.8.8 0 0 0-.42-.46c-.3-.07-.61-.1-.92-.09h-.32v-.53c1.1-.08 2.19-.28 3.24-.61h.29zM82 10.54a1.2 1.2 0 0 1 2.07-.85c.46.48.46 1.23 0 1.71a1.2 1.2 0 0 1-1.72 0 1.17 1.17 0 0 1-.38-.86H82zm14.3 5.72h-2.89v5.72c-.02.6.02 1.18.12 1.77.07.3.25.55.5.73.23.18.52.28.81.28.63-.04 1.19-.4 1.47-.95l.37.22c-.22.49-.6.9-1.07 1.15-.44.25-.93.38-1.43.39-.54 0-1.06-.17-1.48-.5-.4-.28-.68-.68-.8-1.15-.13-.76-.18-1.53-.16-2.3v-5.36h-1.4v-.52a2.45 2.45 0 0 0 1.73-.8c.54-.6.88-1.37.96-2.17h.38v2.97h2.9v.52zm9.98 7.14l2.24-5.25c.2-.41.36-.84.48-1.28 0-.38-.43-.58-1.3-.6v-.53h3.37v.53c-.42-.01-.84.13-1.15.41-.39.5-.69 1.06-.9 1.66l-4.29 10.15a7.59 7.59 0 0 1-1.07 1.98c-.25.32-.63.52-1.04.53-.5 0-.76-.23-.76-.68 0-.52.4-.99 1.22-1.33.34-.13.66-.31.95-.53.21-.23.37-.5.48-.8l.91-2.24-3.6-7.61a4.1 4.1 0 0 0-.8-1.28c-.3-.21-.69-.3-1.07-.27v-.52h4.4v.53c-.76.03-1.15.18-1.15.5.1.4.26.77.46 1.13l2.62 5.5zm9.91-7.07c0-.33.13-.64.36-.87.23-.25.56-.39.9-.38.34 0 .66.13.9.36a1.22 1.22 0 0 1-.01 1.76c-.23.23-.56.37-.89.36a1.2 1.2 0 0 1-.9-.37 1.2 1.2 0 0 1-.36-.86zm0 8a1.26 1.26 0 0 1 2.52 0c0 .67-.55 1.23-1.24 1.24-.34 0-.66-.13-.9-.38a1.22 1.22 0 0 1-.38-.87zm28.45 1.24h-.5l-2.87-7.5-2.93 7.5h-.5l-2.95-7.51a6.27 6.27 0 0 0-.75-1.54 1.4 1.4 0 0 0-1-.25v-.53h4.38v.53a2.6 2.6 0 0 0-1 .13.5.5 0 0 0-.27.46 6 6 0 0 0 .45 1.35l1.96 5.07 2.97-7.54h.5l2.88 7.54 2.12-5.37c.15-.33.26-.67.33-1.02 0-.39-.39-.59-1.18-.62v-.53h3.11v.53c-.3 0-.6.07-.88.21-.28.24-.49.56-.59.91l-.26.67-3.02 7.5zm18.67-2.1h.43c-.07 1.32-.73 1.98-1.97 1.98a1.8 1.8 0 0 1-1.25-.42 2.06 2.06 0 0 1-.6-1.23c-.67.48-1.39.9-2.14 1.23-.54.26-1.13.4-1.73.42-.61.01-1.2-.18-1.68-.56-.47-.35-.73-.9-.7-1.48.02-.84.46-1.62 1.17-2.08 1.01-.71 2.1-1.3 3.26-1.73l1.82-.73v-.46c.01-.46-.03-.93-.13-1.39a1.5 1.5 0 0 0-.67-.78 2.64 2.64 0 0 0-1.42-.35c-1.17 0-1.83.38-1.96 1.15-.13.8-.46 1.18-1.01 1.18s-.72-.22-.72-.67c0-.44.32-.9.95-1.4.63-.5 1.62-.77 2.95-.77.8-.04 1.6.12 2.31.46.47.23.85.6 1.09 1.06.2.57.3 1.18.26 1.8v3.78c-.02.58.04 1.16.18 1.73.1.25.35.4.61.38.5 0 .82-.38.95-1.12zm-3.4-4.04l-1.27.5c-2.01.8-3.02 1.82-3.02 3.04-.02.42.11.84.39 1.17.25.29.62.45 1 .44a3 3 0 0 0 1.29-.35c.58-.3 1.12-.66 1.63-1.08l-.01-3.72zm13.78-3.17h-2.88v5.72c-.02.6.02 1.18.12 1.77.07.3.25.55.5.73.24.18.52.28.82.28.62-.04 1.18-.4 1.46-.95l.37.22c-.22.49-.6.9-1.07 1.15-.43.25-.93.38-1.43.39-.54 0-1.06-.17-1.48-.5-.4-.28-.68-.69-.8-1.15-.12-.76-.18-1.54-.15-2.3v-5.36h-1.4v-.52a2.45 2.45 0 0 0 1.73-.8c.55-.6.88-1.37.96-2.17h.37v2.97h2.9l-.02.52zm13.35 2.69h-6.7c-.03.45-.05.78-.05.99 0 1.65.27 2.9.8 3.74.49.8 1.4 1.29 2.36 1.24a3.1 3.1 0 0 0 3.02-1.87h.56a3.23 3.23 0 0 1-1.51 1.83 4.73 4.73 0 0 1-7.16-4.32 5.36 5.36 0 0 1 1.34-3.72 4.32 4.32 0 0 1 3.34-1.49 3.83 3.83 0 0 1 4 3.6zm-2.05-.5c.02-.16.03-.33.03-.5a1.96 1.96 0 0 0-.55-1.53c-.4-.4-.96-.62-1.54-.6-1.42 0-2.27.87-2.55 2.61l4.6.02zm10.3-.68c.26-.69.7-1.29 1.3-1.74.48-.42 1.1-.66 1.75-.7.46 0 .9.17 1.22.5.27.26.43.6.44.97a.8.8 0 0 1-.23.58.73.73 0 0 1-.56.24c-.38 0-.68-.28-.89-.85-.14-.39-.34-.58-.62-.58-.48.07-.9.31-1.21.68-.43.37-.74.86-.9 1.4a7.72 7.72 0 0 0-.2 1.98v1.69c0 .99 0 1.64.04 1.9a.8.8 0 0 0 .33.6c.33.17.7.24 1.05.2h.33v.54h-5.1v-.52h.26c.34.02.69-.04 1-.2.2-.11.33-.3.36-.53.04-.23.06-.89.06-1.98v-2.67c0-1 0-1.65-.04-1.9a.8.8 0 0 0-.33-.6 1.85 1.85 0 0 0-1.04-.22h-.25v-.53c.97-.14 1.93-.36 2.87-.68.25.79.37 1.6.36 2.42z"
        ></path>
        <path
          fill="var(--userLogoColor, #FFCA0B)"
          d="M10.04 18.81H6.45c-.15 0-.3.06-.4.17-.12.1-.18.25-.18.4v1.53c0 .16.06.3.17.4.11.12.26.18.41.17h3.6c.31 0 .57-.25.57-.56v-1.54a.58.58 0 0 0-.57-.57zm5.88-7.93l-.8-1.57.38-.21c.12-.06.2-.13.04-.44-.16-.3-.34-.23-.34-.23l-.5.26c-.27-.41-.72-.67-1.21-.69h-.88a.55.55 0 0 0-.42.12.57.57 0 0 1-.44.18H5.67c-.06 0-.07-.04-.1-.06a.88.88 0 0 0-.96.1c-.1.1-.5.57-.7.82-.16.17-.36.3-.59.35a.22.22 0 0 0 0-.24l-.08-.18.12-.33.11-.06-.06-.16-.2.1c-.14.06-.14.12-.14.12-.06.22-.21.23-.21.23l-.4-.73c-.05-.09-.14-.34-1.3.27-1.17.61-.89.85-.89.85l.4.75-.13.1.3.56c-.12.06-.23.13-.33.2-.3.14-.5.44-.51.78v16.47c0 1.24.36 1.8 1.77 1.8h12.8c.82 0 1.6-.42 1.6-1.83V11.92c0-.81-.15-.84-.25-1.04zm-9.2-1.36H11c.25-.03.49.1.62.3.13.21.13.47 0 .68a.66.66 0 0 1-.62.31H6.72a.66.66 0 0 1-.62-.3.64.64 0 0 1 0-.69c.14-.2.37-.33.62-.3zm5.4 12.96s1.44 2.47 1.73 3.01c.4.75-.14 1.07-.14 1.07a.82.82 0 0 1-1.08-.28c-.3-.55-1.3-2.28-1.65-2.8-.46-.7-.65-.93-1.26-.93H6.7c-.61 0-.8.23-1.27.92-.35.53-1.35 2.26-1.66 2.8a.82.82 0 0 1-1.09.29s-.54-.32-.14-1.07l1.74-3.01c.2-.3.33-.64.36-1v-2.74c-.03-.35-.16-.69-.36-.99 0 0-1.43-2.45-1.73-3.01-.4-.74.14-1.06.14-1.06a.83.83 0 0 1 1.09.28c.3.55 1.3 2.27 1.66 2.8.46.69.66.92 1.27.92h3.02c.61 0 .8-.23 1.26-.92a72.8 72.8 0 0 0 1.65-2.8.82.82 0 0 1 1.08-.28s.54.32.14 1.06c-.3.56-1.72 3.01-1.72 3.01-.2.3-.32.64-.36 1v2.73c.04.36.15.7.35 1z"
          ></path>
      </g>
</svg>